<svg xmlns="http://www.w3.org/2000/svg" version="1.1" xmlns:xlink="http://www.w3.org/1999/xlink" width="512" height="512" x="0" y="0" viewBox="0 0 64 64" style="enable-background:new 0 0 512 512" xml:space="preserve" class=""><g><linearGradient id="a" x1="4" x2="60" y1="32" y2="32" gradientUnits="userSpaceOnUse"><stop stop-opacity="1" stop-color="#abbefa" offset="0"></stop><stop stop-opacity="1" stop-color="#d4c7ef" offset="1"></stop></linearGradient><path fill="url(#a)" d="M4.396 10.357A3.333 3.333 0 0 1 8.724 5.81L57.666 28.19A4.118 4.118 0 0 1 60 30.996H14.885a5.314 5.314 0 0 0-.51-1.483zM16.909 33h-2.024a5.312 5.312 0 0 1-.51 1.483l-9.98 19.155a3.333 3.333 0 0 0 4.329 4.549l48.942-22.382A4.119 4.119 0 0 0 60 33z" opacity="1" data-original="url(#a)" class=""></path></g></svg>